PathFileType	4	(X/Y/Z)	D:\luciana\static.trc
DataRate	CameraRate	NumFrames	NumMarkers	Units	OrigDataRate	OrigDataStartFrame	OrigNumFrames
250.00	250.00	12	21	mm	250.00	116	922
Frame#	Time	pelvisR			PelvisL			Trunk1			Trunk2			Trunk3			C7			shoulder			upperArm1			upperArm2			upperArm3			elbow			forearm1			forearm2			forearm3			wrist1			wrist2			wrist3			wristOut			wristIn			elbowInt			hand			
		X1	Y1	Z1	X2	Y2	Z2	X3	Y3	Z3	X4	Y4	Z4	X5	Y5	Z5	X6	Y6	Z6	X7	Y7	Z7	X8	Y8	Z8	X9	Y9	Z9	X10	Y10	Z10	X11	Y11	Z11	X12	Y12	Z12	X13	Y13	Z13	X14	Y14	Z14	X15	Y15	Z15	X16	Y16	Z16	X17	Y17	Z17	X18	Y18	Z18	X19	Y19	Z19	X20	Y20	Z20	X21	Y21	Z21	

115	0.460000	1410.061836	637.765765	655.966461	1744.413495	653.378487	650.852442	1516.789079	873.001337	561.999083	1580.058575	819.846511	560.330093	1491.736174	780.243814	561.877847	1581.739426	1132.293701	743.146896	1752.357721	1067.979336	676.424384	1862.275839	931.885302	772.853017	1903.667927	942.679048	709.745049	1852.109909	917.085648	650.824964	1916.441560	798.524320	701.249838	1925.167084	702.157021	716.512680	1936.092854	732.031405	641.891479	1872.170091	766.558886	625.461578	1836.290240	674.021482	543.401957	1868.971944	614.336133	584.538162	1775.156498	693.647087	579.903722	1822.981954	603.463054	562.505126	1767.664433	646.259904	562.717319	1858.237982	763.513207	765.449643	1791.635513	610.544086	502.449751	
116	0.464000	1410.078645	637.763381	655.951381	1744.409442	653.387129	650.855124	1516.788244	873.013616	561.992764	1580.067754	819.855452	560.324192	1491.743326	780.245364	561.885357	1581.740141	1132.288218	743.164837	1752.359509	1067.980409	676.431179	1862.278104	931.885898	772.869051	1903.664708	942.674398	709.759235	1852.116585	917.097926	650.829554	1916.445374	798.531711	701.256931	1923.906803	702.101707	716.722190	1936.097383	732.041121	641.887784	1872.173905	766.567409	625.470340	1836.289167	674.019516	543.406308	1868.974924	614.339352	584.530234	1775.162935	693.649292	579.912245	1822.984457	603.473008	562.465966	1767.683983	646.298826	562.774360	1858.236790	763.511181	765.452027	1791.635156	610.550046	502.462327	
117	0.468000	1410.084963	637.751043	655.983806	1744.405150	653.393805	650.857627	1516.793370	873.040855	562.000394	1580.070496	819.868028	560.325742	1491.749763	780.253589	561.875463	1581.729770	1132.294178	743.194163	1752.362251	1067.977667	676.452696	1862.283468	931.886315	772.878110	1903.669357	942.677557	709.770024	1852.114797	917.094827	650.835276	1916.442871	798.527360	701.259434	1925.598502	702.157080	716.440201	1936.101437	732.040942	641.894042	1872.172832	766.570926	625.475526	1836.291552	674.020886	543.415010	1868.995190	614.345312	584.531128	1775.160789	693.659484	579.915583	1822.985649	603.462696	562.461078	1767.660499	646.266758	562.719941	1858.242273	763.517022	765.470564	1791.640639	610.560060	502.474189	
118	0.472000	1410.077333	637.737453	655.988812	1744.407535	653.389096	650.858819	1516.810060	873.054504	562.000036	1580.068469	819.873869	560.324550	1491.746426	780.257463	561.870456	1581.738234	1132.295847	743.203819	1752.368689	1067.977071	676.460803	1862.277627	931.879640	772.881091	1903.669119	942.671657	709.776700	1852.107763	917.087436	650.838375	1916.435719	798.519254	701.266050	1925.050497	702.146649	716.546237	1936.083198	732.033789	641.880512	1872.170210	766.568005	625.477672	1836.293936	674.023032	543.419778	1868.998528	614.334941	584.534883	1775.168657	693.657875	579.913616	1822.973013	603.464484	562.474489	1767.709970	646.332026	562.852740	1858.230710	763.513446	765.462816	1791.634440	610.568047	502.478838	
119	0.476000	1410.079718	637.758017	655.969381	1744.411349	653.394938	650.866508	1516.808629	873.051643	562.000930	1580.070734	819.880843	560.318530	1491.747022	780.258834	561.866760	1581.765056	1132.304788	743.204117	1752.363443	1067.973018	676.479876	1862.277150	931.880236	772.890091	1903.671026	942.666173	709.789991	1852.110982	917.092204	650.856853	1916.431427	798.519492	701.262951	1923.902154	702.109993	716.743290	1936.074972	732.017875	641.861320	1872.160792	766.569734	625.482440	1836.290121	674.024761	543.413281	1869.004250	614.333391	584.542811	1775.174856	693.652511	579.914451	1822.972655	603.463531	562.479794	1767.708540	646.336973	562.846065	1858.224750	763.507843	765.463293	1791.657805	610.568404	502.481520	
120	0.480000	1410.071492	637.770057	655.964255	1744.412422	653.396964	650.878191	1516.811371	873.057663	561.995387	1580.072045	819.881022	560.310841	1491.740823	780.269384	561.846256	1581.760764	1132.303238	743.203521	1752.363205	1067.973733	676.500320	1862.275600	931.876779	772.904992	1903.679371	942.665815	709.806085	1852.115989	917.083740	650.877953	1916.424394	798.507810	701.267123	1925.632238	702.175140	716.462255	1936.085105	732.016265	641.865671	1872.160673	766.574085	625.487924	1836.295128	674.029887	543.410778	1868.998408	614.338934	584.551454	1775.172234	693.649650	579.918027	1822.949767	603.454590	562.470019	1767.687082	646.311581	562.785029	1858.232856	763.530135	765.499711	1791.666746	610.557735	502.487302	
121	0.484000	1410.066009	637.750089	655.953169	1744.412661	653.388858	650.890470	1516.799212	873.047590	562.010407	1580.069780	819.883049	560.306966	1491.746545	780.284226	561.820745	1581.759810	1132.297516	743.221283	1752.365589	1067.974687	676.517010	1862.272620	931.864262	772.913873	1903.678417	942.664087	709.818363	1852.108836	917.079568	650.889397	1916.435242	798.505783	701.279640	1926.055074	702.180266	716.401041	1936.097860	732.020020	641.897619	1872.165442	766.573787	625.500619	1836.295128	674.026787	543.424964	1868.987322	614.327252	584.551394	1775.171399	693.651438	579.916477	1822.954297	603.454649	562.466621	1767.668247	646.257102	562.726974	1858.224869	763.516426	765.492439	1791.640162	610.551000	502.484918	
122	0.488000	1410.045862	637.746096	655.974507	1744.410872	653.383493	650.885642	1516.772866	873.043120	562.005103	1580.063105	819.887221	560.310066	1491.739750	780.283988	561.806202	1581.760168	1132.287979	743.229210	1752.363682	1067.975044	676.536322	1862.272620	931.861281	772.926092	1903.674603	942.658603	709.824145	1852.110028	917.084634	650.887012	1916.433334	798.512399	701.284528	1926.167250	702.181399	716.393769	1936.082125	732.021928	641.903043	1872.164369	766.568422	625.502706	1836.287856	674.025476	543.421745	1868.995428	614.323080	584.549785	1775.158763	693.641305	579.924881	1822.966337	603.451967	562.490940	1767.688990	646.295786	562.749565	1858.212709	763.496697	765.483737	1791.643023	610.550702	502.479315	
123	0.492000	1410.056829	637.744069	655.973017	1744.407892	653.378963	650.868177	1516.775608	873.051524	561.987162	1580.050468	819.894433	560.309589	1491.741419	780.301094	561.803162	1581.762552	1132.283092	743.235767	1752.365470	1067.963600	676.545382	1862.275124	931.855261	772.936702	1903.674364	942.652404	709.837556	1852.109790	917.078018	650.895119	1916.432381	798.524499	701.300681	1926.195741	702.178538	716.398239	1936.086416	732.027411	641.901910	1872.156620	766.553044	625.509560	1836.281538	674.026132	543.420672	1868.986487	614.327431	584.559023	1775.155783	693.639994	579.929948	1822.978973	603.439391	562.499285	1767.668962	646.246433	562.696159	1858.216166	763.493896	765.486240	1791.637897	610.552192	502.475977	
124	0.496000	1410.070896	637.764275	655.976415	1744.403481	653.372288	650.864601	1516.776323	873.065650	561.977446	1580.046415	819.895506	560.307086	1491.753101	780.323386	561.806560	1581.758499	1132.287502	743.253827	1752.366066	1067.956686	676.566422	1862.272978	931.850433	772.954226	1903.679132	942.648053	709.857166	1852.105141	917.081296	650.908828	1916.433930	798.520982	701.300621	1925.191998	702.131152	716.569066	1936.086297	732.028246	641.919851	1872.150064	766.549349	625.521541	1836.282372	674.026310	543.431401	1868.983865	614.336550	584.551692	1775.160789	693.647504	579.928339	1822.992206	603.458703	562.460065	1767.706037	646.313429	562.815428	1858.220816	763.496518	765.497446	1791.614413	610.540152	502.474010	
125	0.500000	1410.083890	637.781382	655.962408	1744.405866	653.366089	650.892735	1516.761780	873.074770	561.984301	1580.039740	819.903731	560.305238	1491.767526	780.352354	561.799407	1581.759095	1132.288456	743.273556	1752.362967	1067.961931	676.585615	1862.271070	931.849599	772.968650	1903.681755	942.649424	709.873557	1852.104664	917.083621	650.917709	1916.434526	798.503399	701.300144	1922.905684	702.041566	716.954231	1936.089039	732.027948	641.943634	1872.170091	766.548991	625.516295	1836.275101	674.021721	543.438435	1868.983388	614.347458	584.543586	1775.157571	693.648338	579.938650	1822.973132	603.455544	562.464237	1767.687440	646.296263	562.748671	1858.216524	763.495564	765.506148	1791.619658	610.546410	502.485991	
126	0.504000	1410.099626	637.764812	655.961633	1744.402885	653.370619	650.891006	1516.780019	873.094201	561.991751	1580.032229	819.914162	560.306549	1491.756558	780.366480	561.808288	1581.770301	1132.282972	743.295372	1752.363205	1067.960262	676.603198	1862.270832	931.846797	772.983789	1903.681993	942.654073	709.880948	1852.102518	917.089045	650.930882	1916.431189	798.496485	701.310098	1922.332287	702.030480	717.053175	1936.095357	732.024789	641.954184	1872.183561	766.551375	625.520527	1836.279154	674.025297	543.445230	1868.976593	614.345133	584.535480	1775.159359	693.647444	579.938650	1822.985172	603.469789	562.490702	1767.649412	646.264911	562.678158	1858.211517	763.501346	765.519917	1791.644573	610.560536	502.485991	
